<svg width="24" height="24" viewBox="0 0 24 24" fill="none" xmlns="http://www.w3.org/2000/svg">
<path fill-rule="evenodd" clip-rule="evenodd" d="M3 3C2.44772 3 2 3.44772 2 4V18C2 18.5523 2.44772 19 3 19H10.6736C10.2417 18.0907 10 17.0736 10 16C10 12.134 13.134 9 17 9C18.0736 9 19.0907 9.24169 20 9.67363V4C20 3.44772 19.5523 3 19 3H3ZM5 7H17V8.2H5V7ZM11 10H5V11.2H11V10ZM5 13H9V14.2H5V13Z" fill="black" fill-opacity="0.9"/>
<path fill-rule="evenodd" clip-rule="evenodd" d="M11.4004 15.9999C11.4004 12.9071 13.9076 10.3999 17.0004 10.3999C20.0932 10.3999 22.6004 12.9071 22.6004 15.9999C22.6004 19.0927 20.0932 21.5999 17.0004 21.5999C13.9076 21.5999 11.4004 19.0927 11.4004 15.9999ZM17.5 15.8V13.3H16.5V16.8H19.5V15.8H17.5Z" fill="black" fill-opacity="0.9"/>
</svg>
