<svg width="66" height="16" viewBox="0 0 66 16" fill="none" xmlns="http://www.w3.org/2000/svg">
<rect opacity="0.01" width="16" height="16" fill="#D8D8D8"/>
<path fill-rule="evenodd" clip-rule="evenodd" d="M7.76293 1.37769L2.39452 3.46375C2.15605 3.55641 2 3.77861 2 4.02548V7.95744C2 11.3171 4.43443 13.922 7.85607 14.6508L7.86313 14.6523C7.95327 14.6715 8.04673 14.6715 8.13687 14.6523L8.14547 14.6505C11.5662 13.9218 14 11.3178 14 7.95891V4.02548C14 3.77861 13.8439 3.55641 13.6055 3.46375L8.23707 1.37769C8.085 1.3186 7.915 1.3186 7.76293 1.37769Z" fill="#07C160"/>
<path fill-rule="evenodd" clip-rule="evenodd" d="M11.1607 7.54631C10.9238 7.93511 10.5298 8.23315 10.0578 8.37038C10.0459 8.37382 10.0341 8.3775 10.0222 8.38074C9.94926 8.40145 9.87446 8.41413 9.80035 8.41413C9.47331 8.41413 9.28865 8.19324 9.38784 7.92071C9.46039 7.72141 9.65085 7.55319 9.8833 7.47532C10.2436 7.34394 10.4953 7.04429 10.4953 6.69561C10.4953 6.22579 10.0382 5.84491 9.47447 5.84491C8.91066 5.84491 8.45363 6.22579 8.45363 6.69561V9.30443C8.45363 9.93183 8.09012 10.482 7.54622 10.7932C7.24973 10.9628 6.9005 11.0625 6.52542 11.0625C5.46215 11.0625 4.59717 10.2738 4.59717 9.30443C4.59717 8.99586 4.6854 8.70606 4.83914 8.45373C5.07707 8.06321 5.47354 7.76417 5.94841 7.62782C5.94881 7.6277 5.94917 7.62758 5.94957 7.62746C6.02964 7.60255 6.11267 7.58871 6.19454 7.58871C6.52302 7.58871 6.70856 7.81064 6.60893 8.08437C6.54142 8.26987 6.3596 8.42961 6.14762 8.5146C6.12231 8.52304 6.09767 8.53252 6.07335 8.54252C5.73663 8.68154 5.50458 8.97003 5.50458 9.30443C5.50458 9.77425 5.96161 10.1551 6.52542 10.1551C7.08919 10.1551 7.54622 9.77425 7.54622 9.30443V6.69561C7.54622 6.06817 7.9097 5.51803 8.45363 5.20683C8.75012 5.03721 9.09936 4.9375 9.47447 4.9375C10.5377 4.9375 11.4027 5.72617 11.4027 6.69561C11.4027 7.00414 11.3145 7.29398 11.1607 7.54631" fill="white"/>
<path d="M18.66 3.492V4.584H29.352V3.492H24.684C24.48 2.964 24.264 2.496 24.036 2.076L22.764 2.292C23.004 2.652 23.22 3.06 23.424 3.492H18.66ZM25.98 4.728L25.2 5.484C26.616 6.624 27.72 7.68 28.5 8.664L29.34 7.824C28.428 6.792 27.312 5.76 25.98 4.728ZM25.884 6.996C25.404 7.932 24.78 8.772 24.012 9.492C23.208 8.796 22.56 7.98 22.068 7.068L21.084 7.632C21.624 8.604 22.308 9.468 23.124 10.224C21.888 11.112 20.364 11.784 18.564 12.228L19.26 13.284C21.132 12.792 22.728 12.024 24.048 10.992C25.344 11.964 26.928 12.708 28.8 13.236L29.508 12.168C27.708 11.724 26.184 11.076 24.936 10.212C25.728 9.42 26.388 8.508 26.94 7.464L25.884 6.996ZM21.936 4.74C21.048 5.844 19.944 6.816 18.636 7.632L19.38 8.592C20.724 7.704 21.852 6.672 22.764 5.472L21.936 4.74ZM33.756 6.984C33.096 7.752 32.1 8.388 30.768 8.904L31.392 9.912C32.124 9.576 32.784 9.192 33.36 8.76H34.92C34.164 9.636 32.988 10.356 31.392 10.932L32.124 11.82C33.972 11.076 35.304 10.056 36.144 8.76H37.44C36.528 10.464 35.064 11.64 33.06 12.264L33.708 13.212C35.94 12.492 37.572 11.004 38.604 8.76H39.54C39.492 10.152 39.372 11.052 39.204 11.484C39.036 11.892 38.676 12.096 38.136 12.096C37.68 12.096 37.212 12.072 36.72 12.048L37.02 13.116H38.688C39.264 13.092 39.672 12.924 39.924 12.612C40.176 12.3 40.356 11.736 40.476 10.944C40.584 10.128 40.656 9.072 40.692 7.752H34.476C34.692 7.512 34.896 7.248 35.076 6.984H39.792V2.544H32.268V6.984H33.756ZM38.676 6.024H33.384V5.208H38.676V6.024ZM33.384 4.308V3.516H38.676V4.308H33.384ZM44.964 2.064C44.4 3.912 43.524 5.532 42.348 6.924L42.72 8.136C43.116 7.716 43.488 7.284 43.836 6.828V13.26H44.988V5.052C45.42 4.26 45.768 3.432 46.044 2.556L44.964 2.064ZM46.548 2.652V6.636H48.876V7.692H45.636V8.796H47.856C47.184 9.96 46.344 10.896 45.312 11.616L45.96 12.648C47.076 11.724 48.012 10.44 48.768 8.796H48.876V13.236H50.004V8.796H50.1C50.832 10.332 51.744 11.604 52.848 12.636L53.592 11.64C52.5 10.824 51.648 9.876 51.024 8.796H53.364V7.692H50.004V6.636H52.356V2.652H46.548ZM51.228 5.544H47.676V3.744H51.228V5.544ZM58.824 3.012V3.984H59.856C59.964 4.272 60.06 4.584 60.156 4.92H58.332V5.88H65.364V4.92H63.732C63.864 4.62 63.972 4.308 64.056 3.984H65.112V3.012H62.412C62.316 2.676 62.232 2.376 62.136 2.112L60.984 2.304C61.08 2.52 61.176 2.748 61.26 3.012H58.824ZM62.628 4.92H61.284C61.188 4.584 61.104 4.272 61.008 3.984H62.964C62.868 4.296 62.76 4.608 62.628 4.92ZM59.004 6.468V10.272H61.356V10.908H58.344V11.868H61.356V13.236H62.508V11.868H65.46V10.908H62.508V10.272H64.788V6.468H59.004ZM63.72 9.36H60.108V8.808H63.72V9.36ZM60.108 7.968V7.368H63.72V7.968H60.108ZM54.864 2.556V13.248H55.98V3.624H57.396C57.132 4.596 56.748 5.688 56.268 6.9C56.988 7.908 57.36 8.808 57.36 9.624C57.36 9.828 57.312 9.972 57.24 10.068C57.144 10.14 56.964 10.188 56.7 10.212C56.532 10.212 56.316 10.188 56.076 10.152L56.448 11.304C57.252 11.292 57.816 11.136 58.14 10.836C58.356 10.584 58.476 10.176 58.476 9.624C58.416 8.796 58.044 7.836 57.372 6.732C57.816 5.58 58.2 4.488 58.512 3.456V2.556H54.864Z" fill="#07C160"/>
</svg>
