<svg width="66" height="16" viewBox="0 0 66 16" fill="none" xmlns="http://www.w3.org/2000/svg">
<rect width="66" height="16" rx="3" fill="url(#paint0_linear_513_16249)"/>
<path d="M12.771 6.342C12.794 6.434 12.8055 6.53367 12.8055 6.641V7.883C12.8055 8.48867 12.4107 8.7915 11.621 8.7915H6.19301V9.8495H12.1155C12.9128 9.8495 13.3115 10.2022 13.3115 10.9075V12.0575C13.3115 12.4178 13.2118 12.6938 13.0125 12.8855C12.8055 13.0848 12.5027 13.1845 12.104 13.1845H6.15851C5.23085 13.1845 4.76701 12.7552 4.76701 11.8965V6.779C4.76701 6.411 4.87435 6.13883 5.08901 5.9625C5.29601 5.7785 5.58351 5.6865 5.95151 5.6865H11.598C11.9123 5.6865 12.1692 5.74017 12.3685 5.8475C12.3608 5.83217 12.357 5.8015 12.357 5.7555V4.9505C12.357 4.8585 12.3263 4.78183 12.265 4.7205C12.1883 4.64383 12.081 4.6055 11.943 4.6055H5.45701C5.18868 4.6285 5.05451 4.7435 5.05451 4.9505V5.675C5.03918 5.928 4.93568 6.112 4.74401 6.227C4.55235 6.33433 4.34535 6.36883 4.12301 6.3305C3.76268 6.2845 3.56335 6.06983 3.52501 5.6865V4.778C3.52501 4.07267 3.96585 3.72 4.84751 3.72H7.87201V3.2485C7.88735 2.9725 8.00618 2.78083 8.22851 2.6735C8.45085 2.5585 8.68851 2.524 8.94151 2.57C9.32485 2.639 9.53568 2.86517 9.57401 3.2485V3.72H12.564C13.438 3.72 13.875 4.07267 13.875 4.778V5.7555C13.875 6.0315 13.7485 6.227 13.4955 6.342C13.2578 6.44933 13.0163 6.44933 12.771 6.342ZM6.19301 10.735V11.908C6.19301 12.1533 6.32718 12.276 6.59551 12.276H11.529C11.7667 12.276 11.8855 12.1763 11.8855 11.977V11.034C11.8855 10.9497 11.8587 10.8807 11.805 10.827C11.7437 10.7657 11.6555 10.735 11.5405 10.735H6.19301ZM6.19301 7.9175H11.023C11.1457 7.9175 11.2377 7.88683 11.299 7.8255C11.3527 7.77183 11.3795 7.699 11.3795 7.607V6.871C11.3795 6.69467 11.2607 6.595 11.023 6.572H6.51501C6.40768 6.572 6.32335 6.6065 6.26201 6.6755C6.21601 6.72917 6.19301 6.79433 6.19301 6.871V7.9175ZM21.482 4.134H25.4495C25.6642 4.14167 25.8213 4.203 25.921 4.318C26.0207 4.44067 26.059 4.571 26.036 4.709C26.0053 4.97733 25.8098 5.12683 25.4495 5.1575H20.2745C20.2438 5.90883 20.2093 6.46467 20.171 6.825H23.5865C24.4452 6.848 24.8745 7.24667 24.8745 8.021C24.8745 9.55433 24.7633 10.6967 24.541 11.448C24.265 12.3987 23.6555 12.989 22.7125 13.219C21.9458 13.3647 20.953 13.2612 19.734 12.9085C19.5423 12.8472 19.412 12.7513 19.343 12.621C19.274 12.483 19.2587 12.3488 19.297 12.2185C19.366 11.9425 19.5845 11.8275 19.9525 11.8735C20.8188 12.0805 21.4782 12.1533 21.9305 12.092C22.5438 12.0153 22.9348 11.6205 23.1035 10.9075C23.2108 10.4935 23.2837 10.0028 23.322 9.4355C23.3297 9.25917 23.3412 8.826 23.3565 8.136C23.3412 7.883 23.2108 7.7565 22.9655 7.7565H20.0675C19.8835 9.00617 19.527 10.0488 18.998 10.8845C18.3923 11.8505 17.4915 12.6593 16.2955 13.311C16.1192 13.4107 15.9467 13.4452 15.778 13.4145C15.6323 13.3915 15.525 13.3263 15.456 13.219C15.3793 13.1193 15.3563 13.0043 15.387 12.874C15.4177 12.736 15.5058 12.6172 15.6515 12.5175C16.3108 12.0882 16.8398 11.6013 17.2385 11.057C17.6372 10.5127 17.94 9.9185 18.147 9.2745C18.5073 8.0555 18.699 6.68317 18.722 5.1575H15.939C15.7397 5.14983 15.5902 5.09617 15.4905 4.9965C15.3908 4.88917 15.3448 4.7665 15.3525 4.6285C15.3602 4.33717 15.5557 4.17233 15.939 4.134H19.7915V3.3405C19.7915 3.1105 19.872 2.9265 20.033 2.7885C20.1787 2.66583 20.3588 2.59683 20.5735 2.5815C20.8112 2.5585 21.0182 2.61217 21.1945 2.7425C21.3862 2.8805 21.482 3.07983 21.482 3.3405V4.134ZM37.5875 12.069C37.7945 12.1917 37.921 12.3603 37.967 12.575C38.0053 12.7667 37.9747 12.943 37.875 13.104C37.783 13.265 37.6488 13.357 37.4725 13.38C37.2808 13.403 37.0853 13.3187 36.886 13.127C36.5027 12.7667 36.0542 12.4408 35.5405 12.1495C35.3412 11.9962 35.2875 11.8122 35.3795 11.5975C35.4792 11.3905 35.6747 11.3177 35.966 11.379C36.6637 11.609 37.2042 11.839 37.5875 12.069ZM34.31 12.4715C33.9803 12.7015 33.597 12.9047 33.16 13.081C32.8073 13.2267 32.4547 13.3417 32.102 13.426C31.9257 13.4567 31.7838 13.4375 31.6765 13.3685C31.5768 13.2995 31.5155 13.2075 31.4925 13.0925C31.4542 12.8625 31.5577 12.6938 31.803 12.5865C32.378 12.3795 32.9185 12.023 33.4245 11.517C33.6468 11.3177 33.8692 11.2487 34.0915 11.31C34.3138 11.3713 34.4748 11.4978 34.5745 11.6895C34.7125 11.9578 34.6243 12.2185 34.31 12.4715ZM37.047 10.2635H37.6565C37.9555 10.2942 38.1088 10.4322 38.1165 10.6775C38.1242 10.9382 37.9708 11.0877 37.6565 11.126H32.1825C32.0138 11.1183 31.8873 11.0647 31.803 10.965C31.7263 10.8653 31.6995 10.7542 31.7225 10.6315C31.7455 10.4092 31.8988 10.2865 32.1825 10.2635H32.861V6.5835H32.5275C32.3588 6.57583 32.2362 6.526 32.1595 6.434C32.0828 6.342 32.0522 6.2385 32.0675 6.1235C32.0905 5.90883 32.24 5.79 32.516 5.767H32.861V5.353C32.8687 5.16133 32.9377 5.0195 33.068 4.9275C33.1983 4.8355 33.344 4.79717 33.505 4.8125C33.827 4.8355 34.0072 5.01567 34.0455 5.353V5.767H35.8625V5.353C35.8702 5.16133 35.9392 5.0195 36.0695 4.9275C36.1998 4.8355 36.3455 4.79717 36.5065 4.8125C36.8285 4.8355 37.0087 5.01567 37.047 5.353V5.767H37.5415C37.6795 5.77467 37.7868 5.81683 37.8635 5.8935C37.9325 5.97017 37.967 6.05833 37.967 6.158C37.9823 6.40333 37.8405 6.54517 37.5415 6.5835H37.047V10.2635ZM35.8625 10.2635V9.5045H34.0455V10.2635H35.8625ZM35.8625 8.78V8.0325H34.0455V8.78H35.8625ZM35.8625 7.308V6.5835H34.0455V7.308H35.8625ZM33.827 3.5935H37.5645C37.7255 3.60117 37.8405 3.65867 37.9095 3.766C37.9862 3.86567 38.013 3.98067 37.99 4.111C37.967 4.33333 37.8252 4.45983 37.5645 4.4905H33.3095C32.9185 5.05783 32.4853 5.49483 32.01 5.8015C31.78 5.8935 31.6037 5.85517 31.481 5.6865C31.3583 5.51783 31.3737 5.3415 31.527 5.1575C31.573 5.1115 31.6497 5.02717 31.757 4.9045C31.665 4.98117 31.5538 5.0195 31.4235 5.0195H29.6985V6.319H30.6645C30.9865 6.319 31.2433 6.40333 31.435 6.572C31.6343 6.74833 31.734 7.00517 31.734 7.3425C31.7417 9.58117 31.5653 11.2755 31.205 12.4255C31.0593 12.8932 30.7718 13.1845 30.3425 13.2995C30.0972 13.3608 29.8173 13.3608 29.503 13.2995C29.2347 13.2458 29.0008 13.1577 28.8015 13.035C28.5945 12.8893 28.5255 12.7168 28.5945 12.5175C28.6635 12.3028 28.8398 12.23 29.1235 12.299C29.4148 12.4063 29.6372 12.4102 29.7905 12.3105C29.9208 12.2262 30.0243 12.0345 30.101 11.7355C30.3463 10.7925 30.469 9.355 30.469 7.423C30.469 7.239 30.3808 7.147 30.2045 7.147H29.6755C29.6295 8.45033 29.4953 9.56583 29.273 10.4935C28.9893 11.6895 28.5523 12.621 27.962 13.288C27.755 13.4797 27.5557 13.5142 27.364 13.3915C27.157 13.2535 27.1263 13.035 27.272 12.736C27.755 11.9463 28.0847 10.712 28.261 9.033C28.3683 7.98267 28.4182 6.64483 28.4105 5.0195H27.6515C27.4982 5.01183 27.387 4.962 27.318 4.87C27.249 4.77033 27.2183 4.65917 27.226 4.5365C27.2337 4.29117 27.3755 4.15317 27.6515 4.1225H28.79V3.214C28.7977 2.97633 28.8935 2.80383 29.0775 2.6965C29.2538 2.59683 29.4493 2.56233 29.664 2.593C30.0243 2.639 30.2237 2.846 30.262 3.214V4.1225H31.4235C31.6305 4.13017 31.7685 4.19917 31.8375 4.3295C31.9142 4.47517 31.918 4.62083 31.849 4.7665C32.1403 4.3525 32.3972 3.76217 32.6195 2.9955C32.6732 2.81917 32.7882 2.69267 32.9645 2.616C33.1178 2.55467 33.2827 2.547 33.459 2.593C33.6507 2.64667 33.7887 2.74633 33.873 2.892C33.9727 3.06067 33.9727 3.25617 33.873 3.4785C33.8577 3.51683 33.8423 3.55517 33.827 3.5935ZM42.4 10.4705C42.446 10.9075 42.3387 11.1682 42.078 11.2525C41.9553 11.2985 41.8327 11.2832 41.71 11.2065C41.5873 11.1222 41.5145 10.9918 41.4915 10.8155C41.4302 10.3632 41.3305 9.87633 41.1925 9.355C41.1312 9.11733 41.1887 8.96783 41.365 8.9065C41.5413 8.82983 41.6908 8.88733 41.8135 9.079C42.1125 9.539 42.308 10.0028 42.4 10.4705ZM42.4 6.3765C42.446 6.7675 42.3502 7.01283 42.1125 7.1125C41.9745 7.17383 41.8442 7.17 41.7215 7.101C41.5912 7.02433 41.5107 6.89017 41.48 6.6985C41.4187 6.17717 41.3343 5.74783 41.227 5.4105C41.1733 5.18817 41.227 5.0425 41.388 4.9735C41.5567 4.89683 41.71 4.9505 41.848 5.1345C42.101 5.46417 42.285 5.87817 42.4 6.3765ZM49.553 4.0995V9.125C49.553 9.32433 49.4917 9.4815 49.369 9.5965C49.254 9.70383 49.116 9.7575 48.955 9.7575C48.794 9.7575 48.656 9.70383 48.541 9.5965C48.4183 9.4815 48.357 9.32433 48.357 9.125V4.433C48.357 4.21833 48.2305 4.111 47.9775 4.111H45.9535C45.7312 4.12633 45.62 4.23367 45.62 4.433V9.2055C45.62 9.39717 45.5587 9.5505 45.436 9.6655C45.3287 9.76517 45.1945 9.815 45.0335 9.815C44.8648 9.815 44.7268 9.76517 44.6195 9.6655C44.4968 9.55817 44.4355 9.40483 44.4355 9.2055V4.0995C44.4355 3.79283 44.539 3.55517 44.746 3.3865C44.9453 3.2255 45.1983 3.145 45.505 3.145H48.449C48.7633 3.145 49.024 3.2255 49.231 3.3865C49.4457 3.55517 49.553 3.79283 49.553 4.0995ZM47.4025 9.0445H47.4255C47.5942 9.0445 47.7322 9.08667 47.8395 9.171C47.9698 9.27833 48.035 9.43933 48.035 9.654V11.8045C48.035 11.9962 48.1117 12.0997 48.265 12.115C48.426 12.1303 48.5985 12.1265 48.7825 12.1035C48.9972 12.0575 49.1467 11.8927 49.231 11.609C49.2923 11.4097 49.3345 11.0992 49.3575 10.6775C49.3652 10.5395 49.4265 10.4322 49.5415 10.3555C49.6412 10.2865 49.7523 10.2597 49.875 10.275C50.0973 10.321 50.2123 10.482 50.22 10.758C50.243 11.241 50.2085 11.6627 50.1165 12.023C49.9785 12.713 49.645 13.104 49.116 13.196C48.771 13.242 48.403 13.2612 48.012 13.2535C47.5903 13.2382 47.2875 13.1193 47.1035 12.897C46.9272 12.69 46.839 12.3718 46.839 11.9425V10.8615C46.3253 11.9655 45.5318 12.8242 44.4585 13.4375C44.1748 13.5602 43.9793 13.5142 43.872 13.2995C43.7723 13.1232 43.8107 12.9583 43.987 12.805C45.6507 11.4327 46.4672 9.608 46.4365 7.331V5.3185C46.4365 5.14217 46.4902 5.00033 46.5975 4.893C46.6972 4.79333 46.8198 4.7435 46.9655 4.7435C47.1188 4.73583 47.253 4.78183 47.368 4.8815C47.4907 4.98883 47.552 5.1345 47.552 5.3185V7.331C47.552 7.94433 47.5022 8.5155 47.4025 9.0445ZM42.7105 8.435H40.951V8.688C40.951 9.76133 40.905 10.5702 40.813 11.1145C40.6827 11.8735 40.4258 12.5827 40.0425 13.242C39.9812 13.357 39.8968 13.4337 39.7895 13.472C39.6898 13.5027 39.594 13.4988 39.502 13.4605C39.3257 13.3762 39.2797 13.196 39.364 12.92C39.6017 12.253 39.755 11.5553 39.824 10.827C39.87 10.3593 39.893 9.65017 39.893 8.6995V8.435H39.571C39.456 8.435 39.3602 8.39283 39.2835 8.3085C39.2145 8.23183 39.1762 8.13983 39.1685 8.0325C39.1608 7.90983 39.1877 7.81017 39.249 7.7335C39.318 7.6415 39.4253 7.5955 39.571 7.5955H39.893V4.778C39.893 4.46367 39.9773 4.21833 40.146 4.042C40.3147 3.86567 40.5523 3.7775 40.859 3.7775H40.9625C41.0852 3.4555 41.1695 3.1795 41.2155 2.9495C41.2692 2.7655 41.3765 2.639 41.5375 2.57C41.6908 2.49333 41.8557 2.47033 42.032 2.501C42.2083 2.524 42.3425 2.59683 42.4345 2.7195C42.5342 2.84983 42.5418 3.00317 42.4575 3.1795C42.3425 3.40183 42.2352 3.60117 42.1355 3.7775H42.814C43.458 3.7775 43.78 4.10333 43.78 4.755V12.1725C43.78 12.5712 43.688 12.8855 43.504 13.1155C43.32 13.3685 43.0057 13.495 42.561 13.495C42.2543 13.495 41.8787 13.4068 41.434 13.2305C41.2117 13.1308 41.1158 12.9698 41.1465 12.7475C41.1618 12.5098 41.3113 12.3987 41.595 12.414C42.0013 12.483 42.2467 12.5098 42.331 12.4945C42.492 12.4715 42.5993 12.414 42.653 12.322C42.6913 12.253 42.7105 12.1265 42.7105 11.9425V8.435ZM42.7105 7.5955V4.847C42.7105 4.77033 42.6875 4.70517 42.6415 4.6515C42.5955 4.59783 42.5303 4.571 42.446 4.571H41.2385C41.1618 4.571 41.0967 4.59783 41.043 4.6515C40.9817 4.71283 40.951 4.778 40.951 4.847V7.5955H42.7105ZM59.9315 12.0115V9.976C59.9238 9.769 59.7858 9.65017 59.5175 9.6195H56.01C55.7493 9.6425 55.6113 9.76133 55.596 9.976V12.023C55.596 12.2377 55.7378 12.3565 56.0215 12.3795H59.5175C59.7935 12.3565 59.9315 12.2338 59.9315 12.0115ZM58.2295 8.7455H60.0695C60.4912 8.7455 60.8132 8.85283 61.0355 9.0675C61.2425 9.26683 61.346 9.54283 61.346 9.8955V12.1495C61.346 12.5175 61.2348 12.8012 61.0125 13.0005C60.7902 13.1998 60.4758 13.2995 60.0695 13.2995H55.4465C55.0325 13.2995 54.7143 13.1922 54.492 12.9775C54.285 12.7782 54.1815 12.5022 54.1815 12.1495V9.8955C54.1815 9.53517 54.2888 9.25533 54.5035 9.056C54.7258 8.849 55.0287 8.7455 55.412 8.7455H56.7345V5.744C56.7422 5.46033 56.8418 5.25717 57.0335 5.1345C57.2175 5.01183 57.4168 4.96967 57.6315 5.008C57.9918 5.06167 58.1912 5.307 58.2295 5.744V6.3995H61.346C61.5377 6.40717 61.6795 6.46467 61.7715 6.572C61.8635 6.67933 61.9018 6.79817 61.8865 6.9285C61.8635 7.1815 61.6833 7.32333 61.346 7.354H58.2295V8.7455ZM57.8385 3.7775H61.392C61.6143 3.78517 61.7715 3.8465 61.8635 3.9615C61.9632 4.0765 61.9977 4.203 61.967 4.341C61.9287 4.571 61.737 4.70133 61.392 4.732H54.0205C53.9055 4.732 53.8135 4.77033 53.7445 4.847C53.6755 4.92367 53.641 5.01183 53.641 5.1115V6.802C53.641 8.32767 53.5222 9.585 53.2845 10.574C53.0545 11.5477 52.6827 12.3642 52.169 13.0235C51.9773 13.2382 51.778 13.3225 51.571 13.2765C51.3717 13.2305 51.2567 13.0963 51.226 12.874C51.2183 12.7973 51.2413 12.6977 51.295 12.575C51.6247 11.9157 51.8508 11.1183 51.9735 10.183C52.0808 9.378 52.1345 8.26633 52.1345 6.848V5.0195C52.1345 4.62083 52.2533 4.31417 52.491 4.0995C52.721 3.88483 53.0468 3.7775 53.4685 3.7775H56.263V3.3175C56.2783 3.02617 56.3895 2.81917 56.5965 2.6965C56.7958 2.57383 57.0143 2.53933 57.252 2.593C57.6047 2.662 57.8002 2.9035 57.8385 3.3175V3.7775Z" fill="white"/>
<defs>
<linearGradient id="paint0_linear_513_16249" x1="0" y1="16" x2="66" y2="16" gradientUnits="userSpaceOnUse">
<stop stop-color="#D9AA8B"/>
<stop offset="1" stop-color="#B8875F"/>
</linearGradient>
</defs>
</svg>
