<svg width="16" height="16" viewBox="0 0 16 16" fill="none" xmlns="http://www.w3.org/2000/svg">
<rect opacity="0.01" width="16" height="16" fill="#D8D8D8"/>
<path fill-rule="evenodd" clip-rule="evenodd" d="M7.76293 1.37781L2.39452 3.46387C2.15605 3.55653 2 3.77873 2 4.0256V7.95756C2 11.3172 4.43443 13.9221 7.85607 14.6509L7.86313 14.6524C7.95327 14.6716 8.04673 14.6716 8.13687 14.6524L8.14547 14.6506C11.5662 13.922 14 11.3179 14 7.95903V4.0256C14 3.77873 13.8439 3.55653 13.6055 3.46387L8.23707 1.37781C8.085 1.31872 7.915 1.31872 7.76293 1.37781Z" fill="#07C160"/>
<path fill-rule="evenodd" clip-rule="evenodd" d="M11.1608 7.54631C10.9239 7.93511 10.5298 8.23315 10.0578 8.37038C10.0459 8.37382 10.0342 8.3775 10.0222 8.38074C9.94932 8.40145 9.87453 8.41413 9.80041 8.41413C9.47337 8.41413 9.28871 8.19324 9.3879 7.92071C9.46045 7.72141 9.65091 7.55319 9.88336 7.47532C10.2436 7.34394 10.4954 7.04429 10.4954 6.69561C10.4954 6.22579 10.0383 5.84491 9.47453 5.84491C8.91072 5.84491 8.45369 6.22579 8.45369 6.69561V9.30443C8.45369 9.93183 8.09018 10.482 7.54628 10.7932C7.2498 10.9628 6.90056 11.0625 6.52548 11.0625C5.46221 11.0625 4.59723 10.2738 4.59723 9.30443C4.59723 8.99586 4.68546 8.70606 4.8392 8.45373C5.07713 8.06321 5.47361 7.76417 5.94847 7.62782C5.94887 7.6277 5.94923 7.62758 5.94963 7.62746C6.0297 7.60255 6.11273 7.58871 6.1946 7.58871C6.52308 7.58871 6.70862 7.81064 6.60899 8.08437C6.54148 8.26987 6.35966 8.42961 6.14769 8.5146C6.12237 8.52304 6.09773 8.53252 6.07341 8.54252C5.73669 8.68154 5.50464 8.97003 5.50464 9.30443C5.50464 9.77425 5.96167 10.1551 6.52548 10.1551C7.08925 10.1551 7.54628 9.77425 7.54628 9.30443V6.69561C7.54628 6.06817 7.90976 5.51803 8.45369 5.20683C8.75018 5.03721 9.09942 4.9375 9.47453 4.9375C10.5378 4.9375 11.4028 5.72617 11.4028 6.69561C11.4028 7.00414 11.3145 7.29398 11.1608 7.54631Z" fill="white"/>
</svg>
