<?xml version="1.0" encoding="UTF-8"?>
<svg width="178px" height="20px" viewBox="0 0 178 20" version="1.1" xmlns="http://www.w3.org/2000/svg" xmlns:xlink="http://www.w3.org/1999/xlink">
    <title>编组 2</title>
    <g id="放心买" stroke="none" stroke-width="1" fill="none" fill-rule="evenodd">
        <g id="小程序loading" transform="translate(-118.000000, -828.000000)">
            <g id="编组" transform="translate(118.000000, 828.000000)">
                <g id="icon">
                    <rect id="矩形" fill-opacity="0" fill="#FFFFFF" x="0" y="0" width="20" height="20"></rect>
                    <path d="M11.4433757,1.21969456 L16.8899577,4.36110817 C17.7831216,4.87625647 18.3333333,5.82828979 18.3333333,6.85858639 L18.3333333,13.1414136 C18.3333333,14.1717102 17.7831216,15.1237435 16.8899577,15.6388918 L11.4433757,18.7803054 C10.5502117,19.2954537 9.4497883,19.2954537 8.55662433,18.7803054 L3.11004234,15.6388918 C2.21687836,15.1237435 1.66666667,14.1717102 1.66666667,13.1414136 L1.66666667,6.85858639 C1.66666667,5.82828979 2.21687836,4.87625647 3.11004234,4.36110817 L8.55662433,1.21969456 C9.4497883,0.704546258 10.5502117,0.704546258 11.4433757,1.21969456 Z" id="多边形" fill-opacity="0.05" fill="#000000"></path>
                    <path d="M11.4433757,1.21969456 L16.8899577,4.36110817 C17.7831216,4.87625647 18.3333333,5.82828979 18.3333333,6.85858639 L18.3333333,13.1414136 C18.3333333,14.1717102 17.7831216,15.1237435 16.8899577,15.6388918 L11.4433757,18.7803054 C10.5502117,19.2954537 9.4497883,19.2954537 8.55662433,18.7803054 L3.11004234,15.6388918 C2.21687836,15.1237435 1.66666667,14.1717102 1.66666667,13.1414136 L1.66666667,6.85858639 C1.66666667,5.82828979 2.21687836,4.87625647 3.11004234,4.36110817 L8.55662433,1.21969456 C9.4497883,0.704546258 10.5502117,0.704546258 11.4433757,1.21969456 Z M10.9437541,2.08593833 C10.3597988,1.74913167 9.64020121,1.74913167 9.05624592,2.08593833 L3.60966393,5.22735193 C3.02604207,5.56396628 2.66666667,6.18579487 2.66666667,6.85858639 L2.66666667,13.1414136 C2.66666667,13.8142051 3.02604207,14.4360337 3.60966393,14.7726481 L9.05624592,17.9140617 C9.64020121,18.2508683 10.3597988,18.2508683 10.9437541,17.9140617 L16.3903361,14.7726481 C16.9739579,14.4360337 17.3333333,13.8142051 17.3333333,13.1414136 L17.3333333,6.85858639 C17.3333333,6.18579487 16.9739579,5.56396628 16.3903361,5.22735193 L10.9437541,2.08593833 Z" id="多边形" fill-opacity="0.3" fill="#000000" fill-rule="nonzero"></path>
                    <path d="M8.47875,6.005 L13.51,6.005 L13.51,9.20583333 L8.47875,9.20583333 L8.47875,6.005 Z M10.5295833,14.1795833 L10.5295833,11.61125 C9.91625,12.47375 9.17833333,13.1158333 7.99958333,13.8633333 L7.44375,13.0008333 C8.75666667,12.35875 9.49458333,11.755 10.1079167,10.9116667 L7.96125,10.9116667 L7.96125,10.0395833 L10.5295833,10.0395833 L10.5295833,9.34958333 L11.4591667,9.34958333 L11.4591667,10.0395833 L14.0466667,10.0395833 L14.0466667,10.9116667 L11.7466667,10.9116667 C12.3695833,11.6975 13.2129167,12.33 14.3629167,12.8858333 L13.8358333,13.7866667 C12.9254167,13.2020833 12.10125,12.4545833 11.4591667,11.6304167 L11.4591667,14.1795833 L10.5295833,14.1795833 Z M6.46625,14.2083333 L6.46625,9.685 C6.25541667,10.0108333 6.01583333,10.3270833 5.76666667,10.6433333 L5.18208333,9.78083333 C5.84333333,8.87041667 6.79208333,7.07833333 7.17541667,5.65041667 L8.17208333,5.89 C7.9325,6.62791667 7.68333333,7.31791667 7.39583333,7.96 L7.39583333,14.2083333 L6.46625,14.2083333 Z M9.46583333,6.925 L9.46583333,8.28583333 L12.5229167,8.28583333 L12.5229167,6.925 L9.46583333,6.925 Z" id="保" fill-opacity="0.3" fill="#000000" fill-rule="nonzero"></path>
                </g>
                <text id="小程序购物体验保障服务" opacity="0.3" font-family="PingFangSC-Regular, PingFang SC" font-size="14" font-weight="normal" fill="#000000">
                    <tspan x="24" y="15">小程序购物体验保障服务</tspan>
                </text>
            </g>
        </g>
    </g>
</svg>