<svg width="24" height="24" viewBox="0 0 24 24" fill="none" xmlns="http://www.w3.org/2000/svg">
<path d="M12.9999 20V20.2C12.9999 20.7523 12.5522 21.2 11.9999 21.2C11.4476 21.2 10.9999 20.7523 10.9999 20.2V20H5.18659C4.38073 20 3.90099 19.061 4.38073 18.408C5.46016 16.9386 5.99989 15.4693 5.99989 14V10C5.99989 7.37734 7.6826 5.14769 10.0273 4.3318C10.0093 4.22388 9.99989 4.11304 9.99989 4C9.99989 2.89543 10.8953 2 11.9999 2C13.1045 2 13.9999 2.89543 13.9999 4C13.9999 4.11304 13.9905 4.22388 13.9725 4.3318C16.3172 5.14769 17.9999 7.37734 17.9999 10V14C17.9999 15.4693 18.5396 16.9386 19.619 18.4079C20.0876 19.0457 19.619 20 18.8131 20L12.9999 20ZM11.9999 18.8L18.4257 18.8C17.3514 17.2356 16.7999 15.6304 16.7999 14V10C16.7999 7.94086 15.4913 6.13088 13.5781 5.46515L12.6222 5.13251C12.6836 4.76489 12.7999 4.37403 12.7999 4C12.7999 3.55817 12.4417 3.2 11.9999 3.2C11.5581 3.2 11.1999 3.55817 11.1999 4C11.1999 4.37403 11.3162 4.76489 11.3776 5.13251L10.4217 5.46515C8.5085 6.13088 7.19988 7.94086 7.19988 10V14C7.19988 15.6303 6.64838 17.2355 5.57411 18.8L11.9999 18.8Z" fill="black" fill-opacity="0.9"/>
</svg>
