<svg width="24" height="24" viewBox="0 0 24 24" fill="none" xmlns="http://www.w3.org/2000/svg">
<path fill-rule="evenodd" clip-rule="evenodd" d="M10.9999 20H5.1866C4.3807 20 3.901 19.061 4.38073 18.408C5.46019 16.9387 5.99989 15.4693 5.99989 14V10C5.99989 7.37734 7.6826 5.14769 10.0273 4.3318C10.0093 4.22388 9.99989 4.11304 9.99989 4C9.99989 2.89543 10.8953 2 11.9999 2C13.1045 2 13.9999 2.89543 13.9999 4C13.9999 4.11304 13.9905 4.22388 13.9725 4.3318C16.3172 5.14769 17.9999 7.37734 17.9999 10V14C17.9999 15.4693 18.5396 16.9386 19.619 18.4079C20.0876 19.0457 19.619 20 18.8131 20L12.9999 20V20.2C12.9999 20.7523 12.5522 21.2 11.9999 21.2C11.4476 21.2 10.9999 20.7523 10.9999 20.2V20Z" fill="#FFC300"/>
</svg>
